<svg width="1252" height="264" viewBox="0 0 1252 264" fill="none" xmlns="http://www.w3.org/2000/svg">
<path d="M139.064 78.3467L84.2549 75.0508V140.725H139.064V170.998L84.2549 167.702V195.9L139.064 192.604V222.878H84.2549L48.4883 223V170.998L35.1826 140.725H48.4883V48.0732H139.064V78.3467Z" fill="white"/>
<path d="M221.096 48.0732H256.984V192.604L205.959 229.836L154.934 192.604V78.3467L141.75 48.0732H190.822V174.782L205.959 185.524L221.096 174.782V48.0732Z" fill="white"/>
<path d="M317.897 48.0732H376.857V223H340.969V169.655L310.817 167.702H310.695V223H274.807V170.998L261.623 140.725H274.807V87.8682C274.807 80.5439 276.516 73.8708 279.934 67.8486C283.352 61.8265 288.234 57.0251 294.582 53.4443C301.011 49.8636 308.783 48.0732 317.897 48.0732ZM310.695 140.725H340.969V77.6143H340.847C337.429 77.4515 334.336 77.3701 331.569 77.3701C323.92 77.3701 318.711 78.1025 315.944 79.5674C312.445 81.4391 310.695 86.8102 310.695 95.6807V140.725Z" fill="white"/>
<path d="M455.715 48.0732H491.481V223H455.715V134.743L429.836 100.441V223H394.558V47.8291L429.104 47.9512L429.958 48.9277L455.715 82.9854V48.0732Z" fill="white"/>
<path d="M608.913 48.0732H667.873V223H631.984V169.655L601.833 167.702H601.711V223H565.822V170.998L552.639 140.725H565.822V87.8682C565.822 80.5439 567.531 73.8708 570.949 67.8486C574.367 61.8265 579.25 57.0251 585.598 53.4443C592.027 49.8636 599.799 48.0732 608.913 48.0732ZM601.711 140.725H631.984V77.6143H631.862C628.444 77.4515 625.352 77.3701 622.585 77.3701C614.935 77.3701 609.727 78.1025 606.96 79.5674C603.461 81.4391 601.711 86.8102 601.711 95.6807V140.725Z" fill="white"/>
<path d="M770.778 48.0732V78.3467L742.214 75.417V223H706.325V74.8066L675.93 78.3467V48.0732H770.778Z" fill="white"/>
<path d="M865.505 48.0732V78.3467L836.94 75.417V223H801.052V74.8066L770.656 78.3467V48.0732H865.505Z" fill="white"/>
<path d="M918.483 48.0732H977.443V223H941.555V169.655L911.403 167.702H911.281V223H875.393V170.998L862.209 140.725H875.393V87.8682C875.393 80.5439 877.102 73.8708 880.52 67.8486C883.938 61.8265 888.82 57.0251 895.168 53.4443C901.597 49.8636 909.369 48.0732 918.483 48.0732ZM911.281 140.725H941.555V77.6143H941.433C938.015 77.4515 934.922 77.3701 932.155 77.3701C924.506 77.3701 919.297 78.1025 916.53 79.5674C913.031 81.4391 911.281 86.8102 911.281 95.6807V140.725Z" fill="white"/>
<path d="M1030.18 75.0508H1030.06V174.416C1030.06 183.449 1031.72 188.983 1035.06 191.018C1037.91 192.727 1043.56 193.581 1052.03 193.581C1053.98 193.581 1056.1 193.54 1058.38 193.459H1076.32V223H1037.26C1028.22 223 1020.49 221.21 1014.06 217.629C1007.64 214.048 1002.71 209.247 999.294 203.225C995.957 197.202 994.289 190.529 994.289 183.205V48.0732H1076.32V78.3467L1030.18 75.0508Z" fill="white"/>
<path d="M1158.11 223L1140.16 176.491C1134.47 180.397 1129.38 183.856 1124.9 186.867V223H1089.14V48.0732H1124.9V146.95C1132.23 141.66 1140.85 134.825 1150.78 126.442V48.0732H1186.06V140.48C1181.5 144.794 1176.46 149.188 1170.92 153.664L1196.56 223H1158.11Z" fill="white"/>
<mask id="mask0_218:1351" style="mask-type:alpha" maskUnits="userSpaceOnUse" x="0" y="142" width="1252" height="122">
<rect y="142" width="1252" height="122" fill="#C4C4C4"/>
</mask>
<g mask="url(#mask0_218:1351)">
<path d="M139.064 78.3467L84.2549 75.0508V140.725H139.064V170.998L84.2549 167.702V195.9L139.064 192.604V222.878H84.2549L48.4883 223V170.998L35.1826 140.725H48.4883V48.0732H139.064V78.3467Z" fill="#FFE0C4"/>
<path d="M221.096 48.0732H256.984V192.604L205.959 229.836L154.934 192.604V78.3467L141.75 48.0732H190.822V174.782L205.959 185.524L221.096 174.782V48.0732Z" fill="#FFE0C4"/>
<path d="M317.897 48.0732H376.857V223H340.969V169.655L310.817 167.702H310.695V223H274.807V170.998L261.623 140.725H274.807V87.8682C274.807 80.5439 276.516 73.8708 279.934 67.8486C283.352 61.8265 288.234 57.0251 294.582 53.4443C301.011 49.8636 308.783 48.0732 317.897 48.0732ZM310.695 140.725H340.969V77.6143H340.847C337.429 77.4515 334.336 77.3701 331.569 77.3701C323.92 77.3701 318.711 78.1025 315.944 79.5674C312.445 81.4391 310.695 86.8102 310.695 95.6807V140.725Z" fill="#FFE0C4"/>
<path d="M455.715 48.0732H491.481V223H455.715V134.743L429.836 100.441V223H394.558V47.8291L429.104 47.9512L429.958 48.9277L455.715 82.9854V48.0732Z" fill="#FFE0C4"/>
<path d="M608.913 48.0732H667.873V223H631.984V169.655L601.833 167.702H601.711V223H565.822V170.998L552.639 140.725H565.822V87.8682C565.822 80.5439 567.531 73.8708 570.949 67.8486C574.367 61.8265 579.25 57.0251 585.598 53.4443C592.027 49.8636 599.799 48.0732 608.913 48.0732ZM601.711 140.725H631.984V77.6143H631.862C628.444 77.4515 625.352 77.3701 622.585 77.3701C614.935 77.3701 609.727 78.1025 606.96 79.5674C603.461 81.4391 601.711 86.8102 601.711 95.6807V140.725Z" fill="#FFE0C4"/>
<path d="M770.778 48.0732V78.3467L742.214 75.417V223H706.325V74.8066L675.93 78.3467V48.0732H770.778Z" fill="#FFE0C4"/>
<path d="M865.505 48.0732V78.3467L836.94 75.417V223H801.052V74.8066L770.656 78.3467V48.0732H865.505Z" fill="#FFE0C4"/>
<path d="M918.483 48.0732H977.443V223H941.555V169.655L911.403 167.702H911.281V223H875.393V170.998L862.209 140.725H875.393V87.8682C875.393 80.5439 877.102 73.8708 880.52 67.8486C883.938 61.8265 888.82 57.0251 895.168 53.4443C901.597 49.8636 909.369 48.0732 918.483 48.0732ZM911.281 140.725H941.555V77.6143H941.433C938.015 77.4515 934.922 77.3701 932.155 77.3701C924.506 77.3701 919.297 78.1025 916.53 79.5674C913.031 81.4391 911.281 86.8102 911.281 95.6807V140.725Z" fill="#FFE0C4"/>
<path d="M1030.18 75.0508H1030.06V174.416C1030.06 183.449 1031.72 188.983 1035.06 191.018C1037.91 192.727 1043.56 193.581 1052.03 193.581C1053.98 193.581 1056.1 193.54 1058.38 193.459H1076.32V223H1037.26C1028.22 223 1020.49 221.21 1014.06 217.629C1007.64 214.048 1002.71 209.247 999.294 203.225C995.957 197.202 994.289 190.529 994.289 183.205V48.0732H1076.32V78.3467L1030.18 75.0508Z" fill="#FFE0C4"/>
<path d="M1158.11 223L1140.16 176.491C1134.47 180.397 1129.38 183.856 1124.9 186.867V223H1089.14V48.0732H1124.9V146.95C1132.23 141.66 1140.85 134.825 1150.78 126.442V48.0732H1186.06V140.48C1181.5 144.794 1176.46 149.188 1170.92 153.664L1196.56 223H1158.11Z" fill="#FFE0C4"/>
</g>
</svg>
